<svg width="376" height="33" viewBox="0 0 376 33" fill="none" xmlns="http://www.w3.org/2000/svg">
<g opacity="0.5">
<mask id="path-1-outside-1_2_3" maskUnits="userSpaceOnUse" x="-2" y="-2" width="379" height="37" fill="black">
<rect fill="white" x="-2" y="-2" width="379" height="37"/>
<path d="M60.0633 2.15217C58.6593 2.97826 57.6204 3.76087 56.9464 4.5C56.2725 5.19565 55.6548 6.13043 55.0932 7.30435L44.4789 31.8913H37.2342L30.0738 13.5652L22.9976 31.8913H15.6687L4.88594 7.30435C4.32434 6.08696 3.70657 5.15217 3.03265 4.5C2.41489 3.80435 1.40401 3.02174 0 2.15217L0.673922 1.43478H16.0057L16.5111 2.60869L15.3317 2.86957C14.4893 3.08696 13.8716 3.36956 13.4784 3.71739C13.1415 4.02174 12.973 4.45652 12.973 5.02174C12.973 5.45652 13.1696 6.15217 13.5627 7.10869L21.9867 26.5435L28.4732 9.58696L27.5466 7.30435C26.985 6.08696 26.3672 5.15217 25.6933 4.5C25.0755 3.80435 24.0646 3.02174 22.6606 2.15217L23.3346 1.43478H38.6663L39.256 2.60869L37.9924 2.86957C37.0938 3.04348 36.4761 3.30435 36.1391 3.65217C35.8021 3.95652 35.6336 4.41304 35.6336 5.02174C35.6336 5.45652 35.8302 6.15217 36.2233 7.10869L43.6365 26.6087L51.9763 7.23913C52.3694 6.28261 52.566 5.56522 52.566 5.08696C52.566 4.56522 52.3694 4.15217 51.9763 3.84783C51.6393 3.5 51.0496 3.23913 50.2072 3.06522L48.6909 2.60869L49.1963 1.43478H59.3894L60.0633 2.15217Z"/>
<path d="M66.3958 9.97826C66.3958 8.23913 66.2274 6.86957 65.8904 5.86957C65.5534 4.86957 64.9076 3.86956 63.9529 2.86957L63.2789 2.15217L63.9529 1.43478H82.57C85.6588 1.43478 87.7367 1.15217 88.8038 0.586957L89.8146 0L90.657 0.586957V8.73913L88.9722 9.19565C87.9614 6.84783 86.9505 5.23913 85.9396 4.36957C84.9849 3.5 83.6089 3.06522 81.8118 3.06522H78.021C76.5608 3.06522 75.6061 3.28261 75.1568 3.71739C74.7075 4.1087 74.4829 4.97826 74.4829 6.32609V15.587H80.5482C82.233 15.587 83.4685 15.4565 84.2548 15.1957C85.0972 14.9348 85.715 14.413 86.1081 13.6304L86.5293 12.7174L87.6244 13.2391V20.5435L85.7711 21.0652L85.4342 19.6304C85.2095 18.7174 84.5918 18.087 83.5809 17.7391C82.57 17.3913 80.9413 17.2174 78.6949 17.2174H74.4829V27.0652C74.4829 28.3696 74.7356 29.2391 75.2411 29.6739C75.7465 30.0652 76.8697 30.2609 78.6107 30.2609H82.7385C84.4233 30.2609 85.743 29.8043 86.6977 28.8913C87.7086 27.9783 88.6634 26.3913 89.5619 24.1304L91.331 24.587V32.413L90.4043 33C89.6181 32.5652 88.7195 32.2609 87.7086 32.087C86.6978 31.9565 85.2937 31.8913 83.4966 31.8913H62.3523L61.7626 30.7174C63.1666 30.413 64.1775 30.1304 64.7953 29.8696C65.413 29.5652 65.8342 29.1739 66.0589 28.6957C66.2835 28.2174 66.3958 27.4783 66.3958 26.4783V9.97826Z"/>
<path d="M101.026 9.84783C101.026 8.28261 100.942 7.1087 100.773 6.32609C100.605 5.5 100.268 4.80435 99.7622 4.23913C99.2568 3.67391 98.4425 3.02174 97.3193 2.28261L98.0774 1.43478H112.735L113.325 2.47826C112.033 3.04348 111.107 3.54348 110.545 3.97826C109.983 4.41304 109.59 4.95652 109.366 5.60869C109.197 6.26087 109.113 7.28261 109.113 8.67391V26.8696C109.113 28.2609 109.366 29.1739 109.871 29.6087C110.377 30.0435 111.5 30.2609 113.241 30.2609H116.442C118.07 30.2609 119.362 29.8478 120.317 29.0217C121.272 28.1522 122.254 26.5217 123.265 24.1304L124.95 24.587V32.413L124.108 33C123.378 32.5652 122.563 32.2609 121.665 32.087C120.766 31.9565 119.418 31.8913 117.621 31.8913H96.8981L96.3926 30.7174C97.7966 30.413 98.8075 30.1304 99.4253 29.8696C100.043 29.5652 100.464 29.1739 100.689 28.6957C100.914 28.2174 101.026 27.4783 101.026 26.4783V9.84783Z"/>
<path d="M146.429 32.4783C140.42 32.4783 135.815 31 132.614 28.0435C129.469 25.087 127.897 21.3043 127.897 16.6957C127.897 12.087 129.497 8.30435 132.698 5.34783C135.899 2.34783 140.533 0.847827 146.598 0.847827C150.473 0.847827 153.618 1.43478 156.033 2.60869C158.504 3.73913 159.739 5.23913 159.739 7.10869C159.739 8.93478 158.757 10.3696 156.791 11.413C154.825 12.4565 152.354 12.9783 149.378 12.9783C151.063 11.587 151.905 9.69565 151.905 7.30435C151.905 5.91304 151.343 4.76087 150.22 3.84783C149.153 2.8913 147.749 2.41304 146.008 2.41304C142.807 2.41304 140.448 3.82609 138.932 6.65217C137.472 9.47826 136.742 12.8261 136.742 16.6957C136.742 19.1739 137.191 21.4348 138.09 23.4783C139.044 25.5217 140.392 27.1522 142.133 28.3696C143.93 29.5435 145.98 30.1304 148.283 30.1304C150.922 30.1304 153.112 29.7174 154.853 28.8913C156.651 28.0217 158.279 26.8261 159.739 25.3043L160.75 25.8913C159.234 27.8478 157.268 29.4348 154.853 30.6522C152.495 31.8696 149.687 32.4783 146.429 32.4783Z"/>
<path d="M181.898 32.4783C176.057 32.4783 171.424 31.0652 167.998 28.2391C164.572 25.413 162.86 21.5652 162.86 16.6957C162.86 11.8261 164.572 7.97826 167.998 5.15217C171.424 2.28261 176.057 0.847827 181.898 0.847827C187.739 0.847827 192.372 2.28261 195.798 5.15217C199.279 7.97826 201.02 11.8261 201.02 16.6957C201.02 21.5217 199.279 25.3696 195.798 28.2391C192.372 31.0652 187.739 32.4783 181.898 32.4783ZM181.645 30.9783C183.723 30.9783 185.548 30.3913 187.121 29.2174C188.749 28 190.013 26.3261 190.912 24.1957C191.81 22.0652 192.259 19.6087 192.259 16.8261C192.259 14.0435 191.81 11.5435 190.912 9.32609C190.069 7.1087 188.862 5.3913 187.289 4.17391C185.773 2.91304 184.032 2.28261 182.066 2.28261C179.988 2.28261 178.135 2.91304 176.506 4.17391C174.878 5.3913 173.614 7.13043 172.716 9.3913C171.817 11.6087 171.368 14.1522 171.368 17.0217C171.368 21.2391 172.294 24.6304 174.148 27.1957C176.001 29.7174 178.5 30.9783 181.645 30.9783Z"/>
<path d="M247.786 23.6739C247.898 25.413 248.235 26.8696 248.796 28.0435C249.358 29.2174 250.257 30.2826 251.492 31.2391L250.818 31.8913H236.16L235.571 30.7174C237.424 30.3261 238.603 29.9348 239.109 29.5435C239.67 29.1522 239.951 28.4348 239.951 27.3913C239.951 26.8261 239.502 21.5435 238.603 11.5435L238.098 5.86957L226.726 30.913H224.367L213.079 6.06522L211.899 20.9348C211.675 23.0217 211.562 24.4783 211.562 25.3043C211.562 26.4348 211.731 27.4348 212.068 28.3043C212.461 29.1304 213.163 30.1087 214.174 31.2391L213.416 31.8913H204.065L203.559 30.7174C205.02 30.3696 206.059 30.0652 206.676 29.8043C207.35 29.5435 207.8 29.1739 208.024 28.6957C208.305 28.2174 208.502 27.4783 208.614 26.4783L209.625 13.9565C209.906 11.0435 210.046 9.13043 210.046 8.21739C210.046 6.73913 209.821 5.65217 209.372 4.95652C208.979 4.26087 208.052 3.36956 206.592 2.28261L207.182 1.43478H219.481L228.158 21.7174L237.34 1.43478H248.207L249.049 2.15217C247.982 3.36956 247.252 4.36956 246.859 5.15217C246.522 5.93478 246.354 6.95652 246.354 8.21739C246.354 9.04348 246.466 10.3261 246.69 12.0652L247.786 23.6739Z"/>
<path d="M259.968 9.97826C259.968 8.23913 259.799 6.86957 259.462 5.86957C259.125 4.86957 258.479 3.86956 257.525 2.86957L256.851 2.15217L257.525 1.43478H276.142C279.23 1.43478 281.308 1.15217 282.375 0.586957L283.386 0L284.229 0.586957V8.73913L282.544 9.19565C281.533 6.84783 280.522 5.23913 279.511 4.36957C278.557 3.5 277.181 3.06522 275.384 3.06522H271.593C270.133 3.06522 269.178 3.28261 268.729 3.71739C268.279 4.1087 268.055 4.97826 268.055 6.32609V15.587H274.12C275.805 15.587 277.04 15.4565 277.827 15.1957C278.669 14.9348 279.287 14.413 279.68 13.6304L280.101 12.7174L281.196 13.2391V20.5435L279.343 21.0652L279.006 19.6304C278.781 18.7174 278.163 18.087 277.153 17.7391C276.142 17.3913 274.513 17.2174 272.267 17.2174H268.055V27.0652C268.055 28.3696 268.307 29.2391 268.813 29.6739C269.318 30.0652 270.441 30.2609 272.182 30.2609H276.31C277.995 30.2609 279.315 29.8043 280.269 28.8913C281.28 27.9783 282.235 26.3913 283.134 24.1304L284.903 24.587V32.413L283.976 33C283.19 32.5652 282.291 32.2609 281.28 32.087C280.269 31.9565 278.865 31.8913 277.068 31.8913H255.924L255.334 30.7174C256.738 30.413 257.749 30.1304 258.367 29.8696C258.985 29.5652 259.406 29.1739 259.631 28.6957C259.855 28.2174 259.968 27.4783 259.968 26.4783V9.97826Z"/>
<path d="M323.068 26.4783C323.068 27.4783 323.18 28.2391 323.405 28.7609C323.686 29.2391 324.135 29.6087 324.753 29.8696C325.371 30.1304 326.382 30.413 327.786 30.7174L327.196 31.8913H312.538L311.864 31.2391L312.538 30.4565C313.493 29.4565 314.139 28.4565 314.476 27.4565C314.869 26.413 315.037 25.0435 314.981 23.3478V5.80435C314.981 4.71739 314.841 4 314.56 3.65217C314.335 3.26087 313.858 3.06522 313.128 3.06522H312.201C310.292 3.06522 308.86 3.52174 307.905 4.43478C306.95 5.30435 305.967 6.8913 304.956 9.19565L303.272 8.73913V0.586957L304.114 0L305.125 0.586957C306.192 1.15217 308.27 1.43478 311.359 1.43478H326.775C329.864 1.43478 331.941 1.15217 333.009 0.586957L334.019 0L334.946 0.586957V8.73913L333.177 9.19565C332.11 6.80435 331.099 5.19565 330.144 4.36957C329.246 3.5 327.87 3.06522 326.017 3.06522H324.921C324.191 3.06522 323.686 3.26087 323.405 3.65217C323.18 4 323.068 4.71739 323.068 5.80435V26.4783Z"/>
<path d="M356.877 32.4783C351.037 32.4783 346.404 31.0652 342.978 28.2391C339.552 25.413 337.839 21.5652 337.839 16.6957C337.839 11.8261 339.552 7.97826 342.978 5.15217C346.404 2.28261 351.037 0.847827 356.877 0.847827C362.718 0.847827 367.351 2.28261 370.777 5.15217C374.259 7.97826 376 11.8261 376 16.6957C376 21.5217 374.259 25.3696 370.777 28.2391C367.351 31.0652 362.718 32.4783 356.877 32.4783ZM356.625 30.9783C358.703 30.9783 360.528 30.3913 362.1 29.2174C363.729 28 364.993 26.3261 365.891 24.1957C366.79 22.0652 367.239 19.6087 367.239 16.8261C367.239 14.0435 366.79 11.5435 365.891 9.32609C365.049 7.1087 363.841 5.3913 362.269 4.17391C360.753 2.91304 359.012 2.28261 357.046 2.28261C354.968 2.28261 353.115 2.91304 351.486 4.17391C349.857 5.3913 348.594 7.13043 347.695 9.3913C346.797 11.6087 346.347 14.1522 346.347 17.0217C346.347 21.2391 347.274 24.6304 349.127 27.1957C350.981 29.7174 353.48 30.9783 356.625 30.9783Z"/>
</mask>
<g filter="url(#filter0_i_2_3)">
<path d="M60.0633 2.15217C58.6593 2.97826 57.6204 3.76087 56.9464 4.5C56.2725 5.19565 55.6548 6.13043 55.0932 7.30435L44.4789 31.8913H37.2342L30.0738 13.5652L22.9976 31.8913H15.6687L4.88594 7.30435C4.32434 6.08696 3.70657 5.15217 3.03265 4.5C2.41489 3.80435 1.40401 3.02174 0 2.15217L0.673922 1.43478H16.0057L16.5111 2.60869L15.3317 2.86957C14.4893 3.08696 13.8716 3.36956 13.4784 3.71739C13.1415 4.02174 12.973 4.45652 12.973 5.02174C12.973 5.45652 13.1696 6.15217 13.5627 7.10869L21.9867 26.5435L28.4732 9.58696L27.5466 7.30435C26.985 6.08696 26.3672 5.15217 25.6933 4.5C25.0755 3.80435 24.0646 3.02174 22.6606 2.15217L23.3346 1.43478H38.6663L39.256 2.60869L37.9924 2.86957C37.0938 3.04348 36.4761 3.30435 36.1391 3.65217C35.8021 3.95652 35.6336 4.41304 35.6336 5.02174C35.6336 5.45652 35.8302 6.15217 36.2233 7.10869L43.6365 26.6087L51.9763 7.23913C52.3694 6.28261 52.566 5.56522 52.566 5.08696C52.566 4.56522 52.3694 4.15217 51.9763 3.84783C51.6393 3.5 51.0496 3.23913 50.2072 3.06522L48.6909 2.60869L49.1963 1.43478H59.3894L60.0633 2.15217Z" fill="white"/>
<path d="M66.3958 9.97826C66.3958 8.23913 66.2274 6.86957 65.8904 5.86957C65.5534 4.86957 64.9076 3.86956 63.9529 2.86957L63.2789 2.15217L63.9529 1.43478H82.57C85.6588 1.43478 87.7367 1.15217 88.8038 0.586957L89.8146 0L90.657 0.586957V8.73913L88.9722 9.19565C87.9614 6.84783 86.9505 5.23913 85.9396 4.36957C84.9849 3.5 83.6089 3.06522 81.8118 3.06522H78.021C76.5608 3.06522 75.6061 3.28261 75.1568 3.71739C74.7075 4.1087 74.4829 4.97826 74.4829 6.32609V15.587H80.5482C82.233 15.587 83.4685 15.4565 84.2548 15.1957C85.0972 14.9348 85.715 14.413 86.1081 13.6304L86.5293 12.7174L87.6244 13.2391V20.5435L85.7711 21.0652L85.4342 19.6304C85.2095 18.7174 84.5918 18.087 83.5809 17.7391C82.57 17.3913 80.9413 17.2174 78.6949 17.2174H74.4829V27.0652C74.4829 28.3696 74.7356 29.2391 75.2411 29.6739C75.7465 30.0652 76.8697 30.2609 78.6107 30.2609H82.7385C84.4233 30.2609 85.743 29.8043 86.6977 28.8913C87.7086 27.9783 88.6634 26.3913 89.5619 24.1304L91.331 24.587V32.413L90.4043 33C89.6181 32.5652 88.7195 32.2609 87.7086 32.087C86.6978 31.9565 85.2937 31.8913 83.4966 31.8913H62.3523L61.7626 30.7174C63.1666 30.413 64.1775 30.1304 64.7953 29.8696C65.413 29.5652 65.8342 29.1739 66.0589 28.6957C66.2835 28.2174 66.3958 27.4783 66.3958 26.4783V9.97826Z" fill="white"/>
<path d="M101.026 9.84783C101.026 8.28261 100.942 7.1087 100.773 6.32609C100.605 5.5 100.268 4.80435 99.7622 4.23913C99.2568 3.67391 98.4425 3.02174 97.3193 2.28261L98.0774 1.43478H112.735L113.325 2.47826C112.033 3.04348 111.107 3.54348 110.545 3.97826C109.983 4.41304 109.59 4.95652 109.366 5.60869C109.197 6.26087 109.113 7.28261 109.113 8.67391V26.8696C109.113 28.2609 109.366 29.1739 109.871 29.6087C110.377 30.0435 111.5 30.2609 113.241 30.2609H116.442C118.07 30.2609 119.362 29.8478 120.317 29.0217C121.272 28.1522 122.254 26.5217 123.265 24.1304L124.95 24.587V32.413L124.108 33C123.378 32.5652 122.563 32.2609 121.665 32.087C120.766 31.9565 119.418 31.8913 117.621 31.8913H96.8981L96.3926 30.7174C97.7966 30.413 98.8075 30.1304 99.4253 29.8696C100.043 29.5652 100.464 29.1739 100.689 28.6957C100.914 28.2174 101.026 27.4783 101.026 26.4783V9.84783Z" fill="white"/>
<path d="M146.429 32.4783C140.42 32.4783 135.815 31 132.614 28.0435C129.469 25.087 127.897 21.3043 127.897 16.6957C127.897 12.087 129.497 8.30435 132.698 5.34783C135.899 2.34783 140.533 0.847827 146.598 0.847827C150.473 0.847827 153.618 1.43478 156.033 2.60869C158.504 3.73913 159.739 5.23913 159.739 7.10869C159.739 8.93478 158.757 10.3696 156.791 11.413C154.825 12.4565 152.354 12.9783 149.378 12.9783C151.063 11.587 151.905 9.69565 151.905 7.30435C151.905 5.91304 151.343 4.76087 150.22 3.84783C149.153 2.8913 147.749 2.41304 146.008 2.41304C142.807 2.41304 140.448 3.82609 138.932 6.65217C137.472 9.47826 136.742 12.8261 136.742 16.6957C136.742 19.1739 137.191 21.4348 138.09 23.4783C139.044 25.5217 140.392 27.1522 142.133 28.3696C143.93 29.5435 145.98 30.1304 148.283 30.1304C150.922 30.1304 153.112 29.7174 154.853 28.8913C156.651 28.0217 158.279 26.8261 159.739 25.3043L160.75 25.8913C159.234 27.8478 157.268 29.4348 154.853 30.6522C152.495 31.8696 149.687 32.4783 146.429 32.4783Z" fill="white"/>
<path d="M181.898 32.4783C176.057 32.4783 171.424 31.0652 167.998 28.2391C164.572 25.413 162.86 21.5652 162.86 16.6957C162.86 11.8261 164.572 7.97826 167.998 5.15217C171.424 2.28261 176.057 0.847827 181.898 0.847827C187.739 0.847827 192.372 2.28261 195.798 5.15217C199.279 7.97826 201.02 11.8261 201.02 16.6957C201.02 21.5217 199.279 25.3696 195.798 28.2391C192.372 31.0652 187.739 32.4783 181.898 32.4783ZM181.645 30.9783C183.723 30.9783 185.548 30.3913 187.121 29.2174C188.749 28 190.013 26.3261 190.912 24.1957C191.81 22.0652 192.259 19.6087 192.259 16.8261C192.259 14.0435 191.81 11.5435 190.912 9.32609C190.069 7.1087 188.862 5.3913 187.289 4.17391C185.773 2.91304 184.032 2.28261 182.066 2.28261C179.988 2.28261 178.135 2.91304 176.506 4.17391C174.878 5.3913 173.614 7.13043 172.716 9.3913C171.817 11.6087 171.368 14.1522 171.368 17.0217C171.368 21.2391 172.294 24.6304 174.148 27.1957C176.001 29.7174 178.5 30.9783 181.645 30.9783Z" fill="white"/>
<path d="M247.786 23.6739C247.898 25.413 248.235 26.8696 248.796 28.0435C249.358 29.2174 250.257 30.2826 251.492 31.2391L250.818 31.8913H236.16L235.571 30.7174C237.424 30.3261 238.603 29.9348 239.109 29.5435C239.67 29.1522 239.951 28.4348 239.951 27.3913C239.951 26.8261 239.502 21.5435 238.603 11.5435L238.098 5.86957L226.726 30.913H224.367L213.079 6.06522L211.899 20.9348C211.675 23.0217 211.562 24.4783 211.562 25.3043C211.562 26.4348 211.731 27.4348 212.068 28.3043C212.461 29.1304 213.163 30.1087 214.174 31.2391L213.416 31.8913H204.065L203.559 30.7174C205.02 30.3696 206.059 30.0652 206.676 29.8043C207.35 29.5435 207.8 29.1739 208.024 28.6957C208.305 28.2174 208.502 27.4783 208.614 26.4783L209.625 13.9565C209.906 11.0435 210.046 9.13043 210.046 8.21739C210.046 6.73913 209.821 5.65217 209.372 4.95652C208.979 4.26087 208.052 3.36956 206.592 2.28261L207.182 1.43478H219.481L228.158 21.7174L237.34 1.43478H248.207L249.049 2.15217C247.982 3.36956 247.252 4.36956 246.859 5.15217C246.522 5.93478 246.354 6.95652 246.354 8.21739C246.354 9.04348 246.466 10.3261 246.69 12.0652L247.786 23.6739Z" fill="white"/>
<path d="M259.968 9.97826C259.968 8.23913 259.799 6.86957 259.462 5.86957C259.125 4.86957 258.479 3.86956 257.525 2.86957L256.851 2.15217L257.525 1.43478H276.142C279.23 1.43478 281.308 1.15217 282.375 0.586957L283.386 0L284.229 0.586957V8.73913L282.544 9.19565C281.533 6.84783 280.522 5.23913 279.511 4.36957C278.557 3.5 277.181 3.06522 275.384 3.06522H271.593C270.133 3.06522 269.178 3.28261 268.729 3.71739C268.279 4.1087 268.055 4.97826 268.055 6.32609V15.587H274.12C275.805 15.587 277.04 15.4565 277.827 15.1957C278.669 14.9348 279.287 14.413 279.68 13.6304L280.101 12.7174L281.196 13.2391V20.5435L279.343 21.0652L279.006 19.6304C278.781 18.7174 278.163 18.087 277.153 17.7391C276.142 17.3913 274.513 17.2174 272.267 17.2174H268.055V27.0652C268.055 28.3696 268.307 29.2391 268.813 29.6739C269.318 30.0652 270.441 30.2609 272.182 30.2609H276.31C277.995 30.2609 279.315 29.8043 280.269 28.8913C281.28 27.9783 282.235 26.3913 283.134 24.1304L284.903 24.587V32.413L283.976 33C283.19 32.5652 282.291 32.2609 281.28 32.087C280.269 31.9565 278.865 31.8913 277.068 31.8913H255.924L255.334 30.7174C256.738 30.413 257.749 30.1304 258.367 29.8696C258.985 29.5652 259.406 29.1739 259.631 28.6957C259.855 28.2174 259.968 27.4783 259.968 26.4783V9.97826Z" fill="white"/>
<path d="M323.068 26.4783C323.068 27.4783 323.18 28.2391 323.405 28.7609C323.686 29.2391 324.135 29.6087 324.753 29.8696C325.371 30.1304 326.382 30.413 327.786 30.7174L327.196 31.8913H312.538L311.864 31.2391L312.538 30.4565C313.493 29.4565 314.139 28.4565 314.476 27.4565C314.869 26.413 315.037 25.0435 314.981 23.3478V5.80435C314.981 4.71739 314.841 4 314.56 3.65217C314.335 3.26087 313.858 3.06522 313.128 3.06522H312.201C310.292 3.06522 308.86 3.52174 307.905 4.43478C306.95 5.30435 305.967 6.8913 304.956 9.19565L303.272 8.73913V0.586957L304.114 0L305.125 0.586957C306.192 1.15217 308.27 1.43478 311.359 1.43478H326.775C329.864 1.43478 331.941 1.15217 333.009 0.586957L334.019 0L334.946 0.586957V8.73913L333.177 9.19565C332.11 6.80435 331.099 5.19565 330.144 4.36957C329.246 3.5 327.87 3.06522 326.017 3.06522H324.921C324.191 3.06522 323.686 3.26087 323.405 3.65217C323.18 4 323.068 4.71739 323.068 5.80435V26.4783Z" fill="white"/>
<path d="M356.877 32.4783C351.037 32.4783 346.404 31.0652 342.978 28.2391C339.552 25.413 337.839 21.5652 337.839 16.6957C337.839 11.8261 339.552 7.97826 342.978 5.15217C346.404 2.28261 351.037 0.847827 356.877 0.847827C362.718 0.847827 367.351 2.28261 370.777 5.15217C374.259 7.97826 376 11.8261 376 16.6957C376 21.5217 374.259 25.3696 370.777 28.2391C367.351 31.0652 362.718 32.4783 356.877 32.4783ZM356.625 30.9783C358.703 30.9783 360.528 30.3913 362.1 29.2174C363.729 28 364.993 26.3261 365.891 24.1957C366.79 22.0652 367.239 19.6087 367.239 16.8261C367.239 14.0435 366.79 11.5435 365.891 9.32609C365.049 7.1087 363.841 5.3913 362.269 4.17391C360.753 2.91304 359.012 2.28261 357.046 2.28261C354.968 2.28261 353.115 2.91304 351.486 4.17391C349.857 5.3913 348.594 7.13043 347.695 9.3913C346.797 11.6087 346.347 14.1522 346.347 17.0217C346.347 21.2391 347.274 24.6304 349.127 27.1957C350.981 29.7174 353.48 30.9783 356.625 30.9783Z" fill="white"/>
</g>
<path d="M60.0633 2.15217C58.6593 2.97826 57.6204 3.76087 56.9464 4.5C56.2725 5.19565 55.6548 6.13043 55.0932 7.30435L44.4789 31.8913H37.2342L30.0738 13.5652L22.9976 31.8913H15.6687L4.88594 7.30435C4.32434 6.08696 3.70657 5.15217 3.03265 4.5C2.41489 3.80435 1.40401 3.02174 0 2.15217L0.673922 1.43478H16.0057L16.5111 2.60869L15.3317 2.86957C14.4893 3.08696 13.8716 3.36956 13.4784 3.71739C13.1415 4.02174 12.973 4.45652 12.973 5.02174C12.973 5.45652 13.1696 6.15217 13.5627 7.10869L21.9867 26.5435L28.4732 9.58696L27.5466 7.30435C26.985 6.08696 26.3672 5.15217 25.6933 4.5C25.0755 3.80435 24.0646 3.02174 22.6606 2.15217L23.3346 1.43478H38.6663L39.256 2.60869L37.9924 2.86957C37.0938 3.04348 36.4761 3.30435 36.1391 3.65217C35.8021 3.95652 35.6336 4.41304 35.6336 5.02174C35.6336 5.45652 35.8302 6.15217 36.2233 7.10869L43.6365 26.6087L51.9763 7.23913C52.3694 6.28261 52.566 5.56522 52.566 5.08696C52.566 4.56522 52.3694 4.15217 51.9763 3.84783C51.6393 3.5 51.0496 3.23913 50.2072 3.06522L48.6909 2.60869L49.1963 1.43478H59.3894L60.0633 2.15217Z" stroke="white" stroke-width="2" mask="url(#path-1-outside-1_2_3)"/>
<path d="M66.3958 9.97826C66.3958 8.23913 66.2274 6.86957 65.8904 5.86957C65.5534 4.86957 64.9076 3.86956 63.9529 2.86957L63.2789 2.15217L63.9529 1.43478H82.57C85.6588 1.43478 87.7367 1.15217 88.8038 0.586957L89.8146 0L90.657 0.586957V8.73913L88.9722 9.19565C87.9614 6.84783 86.9505 5.23913 85.9396 4.36957C84.9849 3.5 83.6089 3.06522 81.8118 3.06522H78.021C76.5608 3.06522 75.6061 3.28261 75.1568 3.71739C74.7075 4.1087 74.4829 4.97826 74.4829 6.32609V15.587H80.5482C82.233 15.587 83.4685 15.4565 84.2548 15.1957C85.0972 14.9348 85.715 14.413 86.1081 13.6304L86.5293 12.7174L87.6244 13.2391V20.5435L85.7711 21.0652L85.4342 19.6304C85.2095 18.7174 84.5918 18.087 83.5809 17.7391C82.57 17.3913 80.9413 17.2174 78.6949 17.2174H74.4829V27.0652C74.4829 28.3696 74.7356 29.2391 75.2411 29.6739C75.7465 30.0652 76.8697 30.2609 78.6107 30.2609H82.7385C84.4233 30.2609 85.743 29.8043 86.6977 28.8913C87.7086 27.9783 88.6634 26.3913 89.5619 24.1304L91.331 24.587V32.413L90.4043 33C89.6181 32.5652 88.7195 32.2609 87.7086 32.087C86.6978 31.9565 85.2937 31.8913 83.4966 31.8913H62.3523L61.7626 30.7174C63.1666 30.413 64.1775 30.1304 64.7953 29.8696C65.413 29.5652 65.8342 29.1739 66.0589 28.6957C66.2835 28.2174 66.3958 27.4783 66.3958 26.4783V9.97826Z" stroke="white" stroke-width="2" mask="url(#path-1-outside-1_2_3)"/>
<path d="M101.026 9.84783C101.026 8.28261 100.942 7.1087 100.773 6.32609C100.605 5.5 100.268 4.80435 99.7622 4.23913C99.2568 3.67391 98.4425 3.02174 97.3193 2.28261L98.0774 1.43478H112.735L113.325 2.47826C112.033 3.04348 111.107 3.54348 110.545 3.97826C109.983 4.41304 109.59 4.95652 109.366 5.60869C109.197 6.26087 109.113 7.28261 109.113 8.67391V26.8696C109.113 28.2609 109.366 29.1739 109.871 29.6087C110.377 30.0435 111.5 30.2609 113.241 30.2609H116.442C118.07 30.2609 119.362 29.8478 120.317 29.0217C121.272 28.1522 122.254 26.5217 123.265 24.1304L124.95 24.587V32.413L124.108 33C123.378 32.5652 122.563 32.2609 121.665 32.087C120.766 31.9565 119.418 31.8913 117.621 31.8913H96.8981L96.3926 30.7174C97.7966 30.413 98.8075 30.1304 99.4253 29.8696C100.043 29.5652 100.464 29.1739 100.689 28.6957C100.914 28.2174 101.026 27.4783 101.026 26.4783V9.84783Z" stroke="white" stroke-width="2" mask="url(#path-1-outside-1_2_3)"/>
<path d="M146.429 32.4783C140.42 32.4783 135.815 31 132.614 28.0435C129.469 25.087 127.897 21.3043 127.897 16.6957C127.897 12.087 129.497 8.30435 132.698 5.34783C135.899 2.34783 140.533 0.847827 146.598 0.847827C150.473 0.847827 153.618 1.43478 156.033 2.60869C158.504 3.73913 159.739 5.23913 159.739 7.10869C159.739 8.93478 158.757 10.3696 156.791 11.413C154.825 12.4565 152.354 12.9783 149.378 12.9783C151.063 11.587 151.905 9.69565 151.905 7.30435C151.905 5.91304 151.343 4.76087 150.22 3.84783C149.153 2.8913 147.749 2.41304 146.008 2.41304C142.807 2.41304 140.448 3.82609 138.932 6.65217C137.472 9.47826 136.742 12.8261 136.742 16.6957C136.742 19.1739 137.191 21.4348 138.09 23.4783C139.044 25.5217 140.392 27.1522 142.133 28.3696C143.93 29.5435 145.98 30.1304 148.283 30.1304C150.922 30.1304 153.112 29.7174 154.853 28.8913C156.651 28.0217 158.279 26.8261 159.739 25.3043L160.75 25.8913C159.234 27.8478 157.268 29.4348 154.853 30.6522C152.495 31.8696 149.687 32.4783 146.429 32.4783Z" stroke="white" stroke-width="2" mask="url(#path-1-outside-1_2_3)"/>
<path d="M181.898 32.4783C176.057 32.4783 171.424 31.0652 167.998 28.2391C164.572 25.413 162.86 21.5652 162.86 16.6957C162.86 11.8261 164.572 7.97826 167.998 5.15217C171.424 2.28261 176.057 0.847827 181.898 0.847827C187.739 0.847827 192.372 2.28261 195.798 5.15217C199.279 7.97826 201.02 11.8261 201.02 16.6957C201.02 21.5217 199.279 25.3696 195.798 28.2391C192.372 31.0652 187.739 32.4783 181.898 32.4783ZM181.645 30.9783C183.723 30.9783 185.548 30.3913 187.121 29.2174C188.749 28 190.013 26.3261 190.912 24.1957C191.81 22.0652 192.259 19.6087 192.259 16.8261C192.259 14.0435 191.81 11.5435 190.912 9.32609C190.069 7.1087 188.862 5.3913 187.289 4.17391C185.773 2.91304 184.032 2.28261 182.066 2.28261C179.988 2.28261 178.135 2.91304 176.506 4.17391C174.878 5.3913 173.614 7.13043 172.716 9.3913C171.817 11.6087 171.368 14.1522 171.368 17.0217C171.368 21.2391 172.294 24.6304 174.148 27.1957C176.001 29.7174 178.5 30.9783 181.645 30.9783Z" stroke="white" stroke-width="2" mask="url(#path-1-outside-1_2_3)"/>
<path d="M247.786 23.6739C247.898 25.413 248.235 26.8696 248.796 28.0435C249.358 29.2174 250.257 30.2826 251.492 31.2391L250.818 31.8913H236.16L235.571 30.7174C237.424 30.3261 238.603 29.9348 239.109 29.5435C239.67 29.1522 239.951 28.4348 239.951 27.3913C239.951 26.8261 239.502 21.5435 238.603 11.5435L238.098 5.86957L226.726 30.913H224.367L213.079 6.06522L211.899 20.9348C211.675 23.0217 211.562 24.4783 211.562 25.3043C211.562 26.4348 211.731 27.4348 212.068 28.3043C212.461 29.1304 213.163 30.1087 214.174 31.2391L213.416 31.8913H204.065L203.559 30.7174C205.02 30.3696 206.059 30.0652 206.676 29.8043C207.35 29.5435 207.8 29.1739 208.024 28.6957C208.305 28.2174 208.502 27.4783 208.614 26.4783L209.625 13.9565C209.906 11.0435 210.046 9.13043 210.046 8.21739C210.046 6.73913 209.821 5.65217 209.372 4.95652C208.979 4.26087 208.052 3.36956 206.592 2.28261L207.182 1.43478H219.481L228.158 21.7174L237.34 1.43478H248.207L249.049 2.15217C247.982 3.36956 247.252 4.36956 246.859 5.15217C246.522 5.93478 246.354 6.95652 246.354 8.21739C246.354 9.04348 246.466 10.3261 246.69 12.0652L247.786 23.6739Z" stroke="white" stroke-width="2" mask="url(#path-1-outside-1_2_3)"/>
<path d="M259.968 9.97826C259.968 8.23913 259.799 6.86957 259.462 5.86957C259.125 4.86957 258.479 3.86956 257.525 2.86957L256.851 2.15217L257.525 1.43478H276.142C279.23 1.43478 281.308 1.15217 282.375 0.586957L283.386 0L284.229 0.586957V8.73913L282.544 9.19565C281.533 6.84783 280.522 5.23913 279.511 4.36957C278.557 3.5 277.181 3.06522 275.384 3.06522H271.593C270.133 3.06522 269.178 3.28261 268.729 3.71739C268.279 4.1087 268.055 4.97826 268.055 6.32609V15.587H274.12C275.805 15.587 277.04 15.4565 277.827 15.1957C278.669 14.9348 279.287 14.413 279.68 13.6304L280.101 12.7174L281.196 13.2391V20.5435L279.343 21.0652L279.006 19.6304C278.781 18.7174 278.163 18.087 277.153 17.7391C276.142 17.3913 274.513 17.2174 272.267 17.2174H268.055V27.0652C268.055 28.3696 268.307 29.2391 268.813 29.6739C269.318 30.0652 270.441 30.2609 272.182 30.2609H276.31C277.995 30.2609 279.315 29.8043 280.269 28.8913C281.28 27.9783 282.235 26.3913 283.134 24.1304L284.903 24.587V32.413L283.976 33C283.19 32.5652 282.291 32.2609 281.28 32.087C280.269 31.9565 278.865 31.8913 277.068 31.8913H255.924L255.334 30.7174C256.738 30.413 257.749 30.1304 258.367 29.8696C258.985 29.5652 259.406 29.1739 259.631 28.6957C259.855 28.2174 259.968 27.4783 259.968 26.4783V9.97826Z" stroke="white" stroke-width="2" mask="url(#path-1-outside-1_2_3)"/>
<path d="M323.068 26.4783C323.068 27.4783 323.18 28.2391 323.405 28.7609C323.686 29.2391 324.135 29.6087 324.753 29.8696C325.371 30.1304 326.382 30.413 327.786 30.7174L327.196 31.8913H312.538L311.864 31.2391L312.538 30.4565C313.493 29.4565 314.139 28.4565 314.476 27.4565C314.869 26.413 315.037 25.0435 314.981 23.3478V5.80435C314.981 4.71739 314.841 4 314.56 3.65217C314.335 3.26087 313.858 3.06522 313.128 3.06522H312.201C310.292 3.06522 308.86 3.52174 307.905 4.43478C306.95 5.30435 305.967 6.8913 304.956 9.19565L303.272 8.73913V0.586957L304.114 0L305.125 0.586957C306.192 1.15217 308.27 1.43478 311.359 1.43478H326.775C329.864 1.43478 331.941 1.15217 333.009 0.586957L334.019 0L334.946 0.586957V8.73913L333.177 9.19565C332.11 6.80435 331.099 5.19565 330.144 4.36957C329.246 3.5 327.87 3.06522 326.017 3.06522H324.921C324.191 3.06522 323.686 3.26087 323.405 3.65217C323.18 4 323.068 4.71739 323.068 5.80435V26.4783Z" stroke="white" stroke-width="2" mask="url(#path-1-outside-1_2_3)"/>
<path d="M356.877 32.4783C351.037 32.4783 346.404 31.0652 342.978 28.2391C339.552 25.413 337.839 21.5652 337.839 16.6957C337.839 11.8261 339.552 7.97826 342.978 5.15217C346.404 2.28261 351.037 0.847827 356.877 0.847827C362.718 0.847827 367.351 2.28261 370.777 5.15217C374.259 7.97826 376 11.8261 376 16.6957C376 21.5217 374.259 25.3696 370.777 28.2391C367.351 31.0652 362.718 32.4783 356.877 32.4783ZM356.625 30.9783C358.703 30.9783 360.528 30.3913 362.1 29.2174C363.729 28 364.993 26.3261 365.891 24.1957C366.79 22.0652 367.239 19.6087 367.239 16.8261C367.239 14.0435 366.79 11.5435 365.891 9.32609C365.049 7.1087 363.841 5.3913 362.269 4.17391C360.753 2.91304 359.012 2.28261 357.046 2.28261C354.968 2.28261 353.115 2.91304 351.486 4.17391C349.857 5.3913 348.594 7.13043 347.695 9.3913C346.797 11.6087 346.347 14.1522 346.347 17.0217C346.347 21.2391 347.274 24.6304 349.127 27.1957C350.981 29.7174 353.48 30.9783 356.625 30.9783Z" stroke="white" stroke-width="2" mask="url(#path-1-outside-1_2_3)"/>
</g>
<defs>
<filter id="filter0_i_2_3" x="-1.56592" y="-1.18472" width="378.566" height="39.3739" filterUnits="userSpaceOnUse" color-interpolation-filters="sRGB">
<feFlood flood-opacity="0" result="BackgroundImageFix"/>
<feBlend mode="normal" in="SourceGraphic" in2="BackgroundImageFix" result="shape"/>
<feColorMatrix in="SourceAlpha" type="matrix" values="0 0 0 0 0 0 0 0 0 0 0 0 0 0 0 0 0 0 127 0" result="hardAlpha"/>
<feOffset dy="4"/>
<feGaussianBlur stdDeviation="2"/>
<feComposite in2="hardAlpha" operator="arithmetic" k2="-1" k3="1"/>
<feColorMatrix type="matrix" values="0 0 0 0 0 0 0 0 0 0 0 0 0 0 0 0 0 0 0.25 0"/>
<feBlend mode="normal" in2="shape" result="effect1_innerShadow_2_3"/>
</filter>
</defs>
</svg>
